<?xml version="1.0" encoding="UTF-8" standalone="no"?>
<!-- Created with Inkscape (http://www.inkscape.org/) -->

<svg
   width="348.94mm"
   height="348.94mm"
   version="1.1"
   viewBox="0 0 348.94 348.94"
   xml:space="preserve"
   id="svg1"
   sodipodi:docname="favicon2.svg"
   inkscape:version="1.4.2 (f4327f4, 2025-05-13)"
   xmlns:inkscape="http://www.inkscape.org/namespaces/inkscape"
   xmlns:sodipodi="http://sodipodi.sourceforge.net/DTD/sodipodi-0.dtd"
   xmlns="http://www.w3.org/2000/svg"
   xmlns:svg="http://www.w3.org/2000/svg"><defs
     id="defs1" /><sodipodi:namedview
     id="namedview1"
     pagecolor="#ffffff"
     bordercolor="#000000"
     borderopacity="0.25"
     inkscape:showpageshadow="2"
     inkscape:pageopacity="0.0"
     inkscape:pagecheckerboard="0"
     inkscape:deskcolor="#d1d1d1"
     inkscape:document-units="mm"
     inkscape:zoom="0.620167"
     inkscape:cx="818.32796"
     inkscape:cy="637.73145"
     inkscape:window-width="2560"
     inkscape:window-height="1369"
     inkscape:window-x="1912"
     inkscape:window-y="-8"
     inkscape:window-maximized="1"
     inkscape:current-layer="svg1" /><g
     transform="translate(75.726039,27.235384)"
     id="g1"><path
       d="m 82.385,271.3 c -0.40018,-0.2171 -0.72761,-0.61711 -0.72761,-0.8889 0,-0.68805 2.3779,-2.7897 5.8691,-5.1872 1.6243,-1.1155 3.1098,-2.1845 3.3009,-2.3757 0.19117,-0.19117 1.2422,-0.9143 2.3356,-1.607 1.0934,-0.69267 1.988,-1.3388 1.988,-1.4358 0,-0.20154 -9.5147,-4.8513 -12.78,-6.2457 -1.1926,-0.50923 -2.5256,-1.1038 -2.9622,-1.3212 -1.6998,-0.84668 -7.3297,-3.0199 -11.112,-4.2896 -2.1828,-0.73264 -4.6831,-1.5909 -5.5562,-1.9072 -0.87313,-0.31631 -2.7186,-0.9111 -4.101,-1.3218 -8.6854,-2.58 -11.673,-2.0504 -17.34,3.0739 -3.9823,3.6009 -5.8853,5.0553 -9.0563,6.9212 -2.9984,1.7644 -8.1765,3.7136 -12.101,4.5551 -6.3952,1.3714 -14.863,1.2134 -21.817,-0.40699 -0.95199,-0.22184 -2.9636,-0.64209 -4.4702,-0.93388 -2.8775,-0.5573 -3.743,-0.91168 -3.743,-1.5327 0,-1.0294 4.1728,-5.4458 9.6573,-10.221 4.7768,-4.159 11.567,-8.2097 15.665,-9.3453 1.638,-0.45391 3.8762,-0.78967 8.0886,-1.2134 2.9554,-0.29726 11.522,1.1772 15.467,2.6621 4.3659,1.6433 9.3306,2.6817 9.3306,1.9514 0,-0.14552 -0.12954,-0.26458 -0.28787,-0.26458 -0.15833,0 -1.2597,-0.43106 -2.4474,-0.95791 -1.1877,-0.52685 -3.112,-1.3458 -4.2762,-1.8199 -2.4933,-1.0154 -11.384,-5.3986 -13.097,-6.4567 -2.3988,-1.4821 -7.8605,-4.3958 -10.313,-5.5018 -2.0727,-0.93475 -2.8031,-1.1364 -4.1211,-1.1374 -2.1338,-0.002 -2.7904,0.42955 -10.45,6.8633 -3.3784,2.8377 -11.087,7.3373 -15.272,8.914 -2.6622,1.0031 -6.0022,1.4134 -11.567,1.4211 -8.7528,0.012 -13.145,-0.73606 -19.77,-3.367 -2.7345,-1.086 -2.967,-1.4598 -1.909,-3.0686 3.3699,-5.1242 16.67,-15.398 23.046,-17.802 8.1981,-3.0908 16.649,-3.042 24.684,0.14274 1.5134,0.59993 2.8879,1.2038 3.0543,1.3419 0.33849,0.28092 3.8327,1.634 3.8327,1.4842 0,-0.0526 -1.518,-1.3281 -3.3734,-2.8345 -1.8554,-1.5064 -5.457,-4.7075 -8.0036,-7.1137 -5.7234,-5.4078 -6.6845,-6.1885 -8.2775,-6.724 -2.0319,-0.68304 -2.9661,-0.58979 -9.8465,0.98294 -4.0305,0.92129 -10.781,1.6016 -13.62,1.3726 -6.4948,-0.52377 -12.557,-2.5572 -18.883,-6.334 -6.1218,-3.6548 -15.44,-11.828 -16.688,-14.638 -0.47334,-1.0655 -0.47569,-1.1517 -0.0444,-1.6283 1.2328,-1.3623 11.186,-3.5428 19.383,-4.2463 9.5374,-0.81855 14.877,0.0111 21.736,3.3775 2.775,1.3619 5.2961,3.3834 8.2573,6.6206 1.0754,1.1756 1.9982,2.0945 2.0508,2.0419 0.0526,-0.0526 -0.20203,-0.56697 -0.56574,-1.1431 -1.2852,-2.0359 -5.0128,-10.027 -6.2608,-13.422 -0.69544,-1.8918 -1.4981,-3.9754 -1.7836,-4.6302 -0.73426,-1.6839 -2.5825,-3.3008 -4.3319,-3.7899 -2.3502,-0.657 -3.8958,-0.97261 -4.7632,-0.97261 -0.45195,0 -2.5636,-0.24805 -4.6926,-0.55122 -6.4147,-0.91348 -11.872,-3.0293 -17.364,-6.7315 -4.6629,-3.1434 -10.489,-9.1438 -13.527,-13.932 -3.9135,-6.1677 -4.6289,-7.396 -4.5492,-7.81 0.0505,-0.26211 0.42349,-0.52059 0.87978,-0.60965 1.1188,-0.21837 11.682,0.17865 14.113,0.53044 7.0551,1.0208 11.449,2.1255 14.46,3.6352 5.5318,2.7737 10.668,7.7035 14.286,13.71 1.0348,1.7185 1.1293,1.4714 0.51156,-1.3383 -0.22396,-1.0186 -0.58049,-2.962 -0.7923,-4.3185 -0.21181,-1.3565 -0.50342,-2.9944 -0.64803,-3.6396 -0.1446,-0.64526 -0.44491,-3.3328 -0.66735,-5.9722 -0.61297,-7.2734 -0.89386,-7.7159 -6.8686,-10.819 -2.0373,-1.0582 -4.4781,-2.4214 -5.424,-3.0292 -2.2996,-1.4777 -6.8755,-5.8666 -8.7598,-8.4016 -1.9366,-2.6055 -5.2672,-9.165 -6.4454,-12.694 -1.0792,-3.2327 -3.1144,-12.145 -2.9996,-13.135 0.069,-0.59565 0.19581,-0.68814 0.87424,-0.63784 1.5506,0.11497 11.402,5.4936 15.987,8.7284 2.0229,1.4272 5.9887,5.4365 7.2793,7.359 1.3418,1.9989 3.4674,6.3435 4.2497,8.6862 0.38169,1.143 0.90517,3.5838 1.1633,5.424 0.41731,2.9748 0.49182,3.2284 0.67214,2.2874 0.23989,-1.2519 1.6296,-7.2716 1.9852,-8.599 0.58451,-2.182 1.165,-6.3931 1.1853,-8.599 0.0289,-3.1397 -0.51376,-4.2288 -4.3507,-8.7312 -4.5407,-5.3283 -5.4829,-6.9527 -6.599,-11.377 -0.50957,-2.0198 -0.60129,-3.0826 -0.60512,-7.0115 -0.005,-5.4842 0.28515,-7.7853 1.6534,-13.097 1.4666,-5.6937 4.9602,-14.081 6.1247,-14.705 0.80226,-0.42936 1.7398,0.59449 3.6256,3.9597 2.2084,3.9406 2.4807,4.5311 3.7062,8.0378 3.3992,9.7263 3.7634,16.713 1.5066,28.901 -0.36507,1.9715 -1.7359,7.3533 -2.1397,8.4005 -0.0982,0.25466 -0.11895,0.46302 -0.0461,0.46302 0.0729,0 0.43204,-0.74414 0.7982,-1.6536 0.36615,-0.9095 1.1076,-2.6061 1.6476,-3.7703 0.54001,-1.1642 1.7847,-3.8431 2.766,-5.9531 0.98131,-2.1101 2.1158,-4.6104 2.521,-5.5562 0.40524,-0.94589 1.2432,-2.8509 1.8621,-4.2333 3.3287,-7.4349 3.7232,-8.9029 4.0882,-15.214 0.12626,-2.1828 0.3623,-6.2905 0.52454,-9.1281 0.42652,-7.4602 1.1206,-9.9488 4.2385,-15.197 3.6228,-6.098 9.9244,-12.328 16.971,-16.779 2.1198,-1.3388 2.9413,-1.4119 3.4008,-0.30258 0.49545,1.1961 -0.0737,13.022 -0.79192,16.456 -1.0306,4.9266 -2.7286,8.8606 -6.0274,13.964 -1.6734,2.5889 -5.2057,6.348 -9.6514,10.271 -1.7099,1.5088 -3.1094,2.8227 -3.11,2.9199 -6.5e-4,0.09719 -0.65821,0.91321 -1.4612,1.8134 -1.5724,1.7626 -3.8251,6.0196 -6.2653,11.84 -0.73612,1.7557 -1.8727,4.2601 -2.5257,5.5654 -0.9925,1.9838 -3.6982,8.0052 -4.2242,9.4007 -0.13137,0.34852 -0.0972,0.34793 0.28028,-0.0049 0.3893,-0.36384 1.4376,-2.2624 6.1874,-11.206 3.1516,-5.9343 6.5582,-8.9267 13.468,-11.83 4.3801,-1.8406 9.0931,-2.872 14.447,-3.1618 3.7758,-0.20434 6.5704,-0.06237 6.9877,0.35498 1.0425,1.0425 -5.3632,12.019 -9.0665,15.537 -5.1107,4.8538 -10.504,8.072 -16.655,9.9376 -4.5819,1.3898 -6.2485,1.6867 -9.5055,1.6935 -1.6007,0.0033 -3.3726,0.13441 -3.9376,0.29126 -1.296,0.35984 -3.4631,2.3634 -4.2615,3.94 -1.4854,2.933 -3.9607,11.408 -5.825,19.943 -0.43975,2.0133 -0.96322,6.8087 -0.76661,7.0228 0.18767,0.20437 2.2538,-2.2335 2.6682,-3.1482 0.23071,-0.50932 1.3944,-3.4981 2.586,-6.6417 1.8737,-4.9431 2.4018,-6.0517 3.9067,-8.2021 1.8673,-2.6682 2.5775,-3.414 4.4392,-4.6618 3.1668,-2.1225 9.3415,-4.546 13.229,-5.1924 5.6609,-0.94116 15.768,-1.4363 16.406,-0.80376 0.68921,0.68361 -3.1407,8.4253 -6.1053,12.341 -2.9041,3.8359 -5.0761,5.7824 -8.0517,7.2158 -3.3001,1.5896 -4.912,2.0643 -11.197,3.2971 -3.0097,0.59036 -6.2246,1.321 -7.1443,1.6237 -1.8262,0.60098 -5.116,2.2512 -6.809,3.4156 -1.1117,0.76454 -3.3408,3.2267 -3.6281,4.0074 -1.0554,2.8683 0.0119,12.323 2.8341,25.106 0.90041,4.0783 2.7646,9.5577 3.3814,9.9389 0.37966,0.23464 0.11565,-3.5713 -0.6218,-8.9636 -0.92829,-6.7878 -0.45998,-11.397 1.6252,-15.996 1.8826,-4.152 7.2472,-10.385 12.219,-14.198 1.6447,-1.2611 3.1438,-2.4197 3.3313,-2.5745 0.73526,-0.60715 5.3827,-2.8875 5.8849,-2.8875 0.98008,0 1.1655,1.0126 0.81124,4.4301 -0.98605,9.5122 -2.8557,17.136 -5.4852,22.367 -1.6323,3.2472 -3.0728,5.0851 -9.4528,12.06 -7.872,8.6065 -8.0308,9.4509 -3.6183,19.242 3.0414,6.7489 4.2625,9.1486 6.2542,12.291 2.0325,3.2066 5.4029,7.7442 5.6033,7.5438 0.0755,-0.0755 -0.71883,-1.5494 -1.7652,-3.2754 -3.4761,-5.7336 -5.1038,-10.635 -5.6095,-16.892 -0.56479,-6.9882 0.31001,-11.608 3.6488,-19.27 3.1192,-7.1578 6.1335,-12.577 9.3086,-16.736 3.2415,-4.2455 3.5276,-4.3481 4.7951,-1.719 2.7334,5.6694 5.0516,12.133 5.8599,16.337 0.47604,2.4762 0.53581,3.4844 0.40008,6.7476 -0.093,2.2366 -0.38682,4.9175 -0.7045,6.4288 -0.81091,3.8578 -3.272,11.186 -5.2162,15.532 -0.94399,2.1101 -2.4707,5.5168 -3.3927,7.5706 -3.4545,7.6952 -3.3464,9.5689 0.79439,13.768 3.8616,3.9158 5.5487,5.2601 13.239,10.549 1.4552,1.0008 3.15,2.1749 3.7663,2.6091 0.61626,0.43423 1.186,0.72402 1.266,0.64398 0.22209,-0.22209 -1.5171,-3.8832 -3.2144,-6.7666 -2.9293,-4.9764 -4.5186,-8.9794 -6.1175,-15.409 -0.811,-3.2612 -0.94955,-4.2494 -0.92398,-6.59 0.0816,-7.472 1.7912,-13.73 5.8031,-21.241 1.1123,-2.0826 2.3334,-4.3818 2.7135,-5.1094 1.2707,-2.4322 2.3755,-3.8364 3.0182,-3.8364 0.68484,0 1.3858,1.1641 4.8591,8.0698 3.8223,7.5997 4.552,10.302 4.7603,17.627 0.16072,5.6532 -0.0568,8.0057 -1.1131,12.04 -0.59486,2.2718 -1.2474,4.0843 -5.2272,14.519 -1.3062,3.4247 -1.6183,4.5404 -1.6337,5.8406 -0.0305,2.565 0.33488,2.8868 7.4219,6.5392 3.329,1.7156 6.2314,3.2319 6.4496,3.3695 0.96719,0.60966 6.4429,3.1555 8.7312,4.0594 1.3824,0.54609 2.7517,1.1016 3.0427,1.2344 0.291,0.1328 1.0054,0.4097 1.5875,0.61522 0.5821,0.20552 1.8025,0.67614 2.712,1.0458 0.9095,0.36969 1.6536,0.62697 1.6536,0.57174 0,-0.0552 -1.399,-1.0499 -3.1089,-2.2104 -6.5932,-4.4748 -10.861,-9.5052 -14.205,-16.742 -1.192,-2.5798 -1.8741,-5.1435 -2.4177,-9.086 -0.66122,-4.7957 -0.41465,-8.4658 1.1891,-17.699 0.58814,-3.3862 1.6088,-5.981 2.3526,-5.981 0.49528,0 4.2,2.7048 6.8389,4.9931 4.007,3.4746 7.1792,8.1979 8.9076,13.263 1.0147,2.9738 2.2192,7.7535 2.6669,10.583 1.1488,7.262 1.7383,11.959 2.2838,18.198 0.33788,3.8642 0.74121,5.1408 2.0524,6.4964 1.2294,1.271 1.8936,1.6226 5.3465,2.8305 8.5395,2.9874 12.287,4.3793 16.933,6.2894 6.7271,2.7655 13.145,5.6353 15.54,6.9491 l 1.9136,1.0496 3.138,-1.573 c 1.7259,-0.86515 4.3175,-2.0732 5.7593,-2.6846 1.4417,-0.61138 2.7404,-1.2032 2.8859,-1.3151 0.46405,-0.35699 12.027,-4.9465 16.007,-6.3538 11.264,-3.9822 10.419,-3.6149 11.96,-5.195 1.4674,-1.5041 1.9276,-2.9221 2.1863,-6.7363 0.44661,-6.5865 2.2137,-18.826 3.3495,-23.201 1.461,-5.6267 3.2056,-9.8899 5.2915,-12.93 1.4882,-2.1691 5.5206,-6.1277 8.6037,-8.4462 2.9708,-2.234 3.5164,-2.4916 3.9953,-1.8866 1.2759,1.6118 2.9509,10.69 3.1609,17.132 0.24127,7.4001 -0.90496,12.451 -4.1617,18.338 -3.3693,6.0906 -6.9248,9.8828 -13.165,14.041 -1.4983,0.99849 -2.6775,1.8622 -2.6204,1.9193 0.0572,0.0572 0.80682,-0.20759 1.6659,-0.58832 0.85912,-0.38073 2.6336,-1.089 3.9433,-1.5739 5.4931,-2.0339 13.933,-6.1305 23.418,-11.367 3.2318,-1.7841 3.3732,-3.4449 0.85597,-10.054 -0.88678,-2.3283 -2.2804,-5.9974 -3.0968,-8.1535 -2.4493,-6.4681 -3.304,-10.739 -3.3126,-16.551 -0.0107,-7.197 1.133,-11.619 4.9879,-19.284 3.3863,-6.7337 4.0535,-7.8549 4.7334,-7.9532 0.7181,-0.10384 1.6866,1.2096 3.8319,5.1965 5.8002,10.78 7.2162,15.086 7.7592,23.597 0.1813,2.8422 0.0875,3.6242 -0.98333,8.1991 -1.3026,5.5649 -2.7891,9.3601 -5.655,14.437 -2.0936,3.7089 -3.9438,7.5231 -3.6494,7.5231 0.20338,0 2.8056,-1.6304 2.993,-1.8753 0.0728,-0.0951 1.0253,-0.75447 2.1167,-1.4654 1.0914,-0.71089 2.4606,-1.6422 3.0427,-2.0696 0.58209,-0.42738 1.5749,-1.1411 2.2062,-1.586 3.8343,-2.7023 9.566,-8.1509 10.514,-9.9944 1.1605,-2.2574 0.64314,-5.8006 -1.4533,-9.9537 -0.42523,-0.84237 -1.2466,-2.6552 -1.8253,-4.0285 -0.5787,-1.3733 -1.5545,-3.5559 -2.1685,-4.8502 -1.5046,-3.172 -4.332,-11.816 -4.9855,-15.242 -1.0801,-5.6625 -1.0034,-10.446 0.24404,-15.225 1.161,-4.448 5.5238,-15.017 6.4367,-15.593 0.29037,-0.18316 0.56962,-0.17641 0.88315,0.0214 0.53694,0.33869 3.9093,4.6274 5.2659,6.6966 2.41,3.6763 7.3624,13.897 9.049,18.676 1.0661,3.0204 1.6308,6.7026 1.6297,10.625 -0.002,7.4013 -1.8186,13.976 -5.4705,19.802 -3.0201,4.8178 -2.7066,5.0198 0.66149,0.42628 3.4705,-4.7331 5.0119,-7.5054 8.8427,-15.904 2.8051,-6.1501 3.155,-7.1782 3.1965,-9.3927 0.0535,-2.8522 -0.95413,-4.475 -6.4643,-10.411 -1.8031,-1.9423 -3.6355,-3.9663 -4.0721,-4.4979 -0.43657,-0.53157 -1.4486,-1.7568 -2.249,-2.7228 -2.6913,-3.2481 -4.4601,-6.9168 -6.0502,-12.548 -1.3557,-4.8016 -2.7978,-14.19 -2.6347,-17.153 0.12771,-2.3203 0.42793,-2.393 3.5285,-0.85374 5.0988,2.5312 11.471,8.058 15.595,13.526 3.8081,5.0493 5.1673,8.9701 5.1823,14.949 0.005,1.9645 -0.11715,4.2862 -0.2713,5.1594 -0.48251,2.7332 -1.0389,9.2169 -0.82385,9.6011 0.3893,0.69565 2.4137,-5.0125 3.4519,-9.7334 2.1676,-9.8563 2.8474,-14.243 3.1037,-20.03 0.14107,-3.1845 0.0974,-3.9388 -0.28613,-4.9431 -0.90017,-2.3571 -5.556,-5.8605 -9.8125,-7.3837 -0.72908,-0.26091 -3.945,-0.99943 -7.1464,-1.6412 -6.7536,-1.3538 -8.7423,-1.9262 -11.608,-3.3412 -3.5854,-1.7705 -5.0347,-3.0367 -8.1393,-7.111 -2.4903,-3.2681 -3.1608,-4.4738 -5.7387,-10.319 -0.82852,-1.8786 -0.81832,-2.1676 0.0858,-2.4338 1.3871,-0.40837 10.824,0.19183 15.696,0.99822 3.0208,0.50008 7.0614,1.8728 10.234,3.4768 4.1692,2.108 5.4911,3.2654 8.0343,7.0343 1.0429,1.5456 1.8614,3.339 3.3707,7.386 2.5118,6.7353 3.0062,7.7705 4.3262,9.0595 l 1.0698,1.0447 -0.0116,-0.91359 c -0.0629,-4.9451 -3.5927,-19.115 -6.3839,-25.626 -0.7168,-1.6722 -2.1802,-3.3739 -3.4831,-4.0502 -0.92673,-0.48102 -1.7527,-0.6017 -5.2027,-0.76018 -4.1641,-0.19129 -5.4274,-0.43338 -10.31,-1.9757 -5.0746,-1.6031 -10.62,-4.9783 -15.449,-9.4032 -2.9716,-2.723 -8.7542,-12.002 -9.3257,-14.965 -0.22482,-1.1654 0.25146,-1.274 5.2949,-1.2079 5.1357,0.06735 11.367,1.0841 14.047,2.2919 0.43656,0.1968 1.8578,0.79507 3.1584,1.3295 4.0931,1.682 7.6439,4.3519 10.174,7.6503 0.93146,1.2142 2.8903,4.7063 6.3243,11.275 1.3661,2.6129 2.22,3.9644 2.5065,3.9669 0.11159,9.94e-4 -0.0826,-0.56374 -0.43147,-1.255 -0.3489,-0.69122 -1.1394,-2.4474 -1.7566,-3.9026 -0.6172,-1.4552 -1.6885,-3.7769 -2.3806,-5.1594 -0.69205,-1.3824 -1.7972,-3.8232 -2.4558,-5.424 -3.4251,-8.3242 -5.6577,-11.644 -10.988,-16.336 -9.0307,-7.951 -13.466,-15.012 -15.391,-24.504 -0.70665,-3.4839 -1.1113,-15.615 -0.54374,-16.299 0.62401,-0.75189 1.5692,-0.42113 4.5692,1.599 6.7776,4.5639 12.42,10.31 15.796,16.087 2.9404,5.0315 3.644,7.5151 4.009,14.15 0.96457,17.535 0.66916,16.075 5.4402,26.89 1.0914,2.4739 2.7382,6.1053 3.6596,8.0698 0.92141,1.9645 2.287,4.9411 3.0347,6.6146 1.5674,3.5082 2.219,4.8549 1.9843,4.101 -0.78798,-2.5306 -2.051,-8.2099 -2.6477,-11.906 -0.96646,-5.9862 -1.0202,-12.173 -0.14683,-16.917 0.66798,-3.629 2.8044,-10.268 4.1771,-12.981 1.7156,-3.3902 3.7988,-6.7403 4.4613,-7.1744 0.9451,-0.61926 1.2876,-0.23557 2.9792,3.3379 2.1329,4.5056 3.1505,7.3392 4.2757,11.906 2.0111,8.1628 2.1427,15.56 0.37808,21.253 -1.0193,3.289 -2.1046,4.9479 -6.751,10.319 -3.0117,3.4814 -3.4945,4.5033 -3.6256,7.6739 -0.11928,2.8862 0.17529,4.7745 1.823,11.686 0.55505,2.3283 1.0907,4.8044 1.1904,5.5023 0.0997,0.69795 0.22735,1.2228 0.28377,1.1664 0.0564,-0.0564 0.22672,-1.1037 0.37845,-2.3273 0.63794,-5.1448 1.697,-8.2955 4.3495,-12.939 2.9689,-5.198 6.8271,-8.6905 14.685,-13.293 2.7122,-1.5886 8.4825,-4.5283 9.4716,-4.8253 1.141,-0.3426 1.3406,0.16142 0.96704,2.4426 -0.57119,3.4885 -2.4579,10.739 -3.4075,13.094 -3.0965,7.6808 -6.6788,12.973 -11.457,16.926 -2.8677,2.3726 -3.9659,3.0796 -8.1673,5.2584 -2.0234,1.0493 -4.0676,2.1947 -4.5426,2.5454 -1.7935,1.3239 -2.4805,3.6578 -2.8257,9.6006 -0.16458,2.8329 -0.32751,3.8827 -1.7299,11.146 -0.43907,2.2742 -0.79832,4.2253 -0.79832,4.3358 0,0.11053 0.94023,-1.2144 2.0894,-2.9442 3.4926,-5.2575 9.1121,-10.269 13.878,-12.377 5.3245,-2.3547 14.191,-3.799 23.852,-3.8854 4.1716,-0.0373 5.1594,0.0797 5.1594,0.61128 0,0.24805 -1.2158,2.2461 -4.6013,7.5618 -4.5215,7.0994 -11.607,13.598 -18.654,17.11 -4.9485,2.4662 -8.6467,3.4276 -16.829,4.375 -7.4277,0.85998 -8.5394,1.771 -10.971,8.9909 -0.87639,2.6026 -5.1103,11.677 -6.4123,13.744 -1.1817,1.8756 -0.86806,1.7791 0.90806,-0.27939 4.8916,-5.6694 10.991,-9.132 18.327,-10.404 5.9656,-1.0345 17.607,-0.0509 26.483,2.2375 4.0372,1.041 5.3996,1.6412 5.3996,2.3791 0,2.5076 -9.6068,11.363 -17.251,15.903 -6.1314,3.6408 -12.271,5.6673 -18.754,6.1903 -3.0926,0.24945 -9.645,-0.48291 -14.614,-1.6334 -6.7593,-1.565 -8.5552,-1.4538 -11.232,0.69538 -1.358,1.0902 -1.6665,1.3745 -6.1397,5.6584 -1.6498,1.58 -4.7168,4.2991 -6.8155,6.0425 -2.0988,1.7434 -3.7656,3.2202 -3.7041,3.2817 0.16158,0.16158 1.9921,-0.51703 3.6203,-1.3421 11.069,-5.6092 24.062,-4.6841 34.542,2.4596 5.4338,3.704 9.0785,6.6836 12.895,10.542 3.789,3.8304 4.3509,4.9993 2.791,5.806 -1.2835,0.66372 -6.3445,2.4268 -8.6338,3.0077 -4.3019,1.0916 -15.674,1.4634 -20.266,0.66255 -3.0549,-0.53273 -4.2199,-0.94401 -8.2174,-2.9009 -5.0352,-2.4649 -9.2731,-5.3806 -15.653,-10.769 -3.3384,-2.8197 -3.8921,-3.1244 -5.6793,-3.1256 -2.0447,-0.001 -4.3697,0.89615 -9.0162,3.4804 -1.0621,0.59072 -3.1218,1.7364 -4.577,2.546 -5.9452,3.3075 -19.904,9.8476 -21.019,9.8476 -0.15408,0 -0.28015,0.11906 -0.28015,0.26458 0,0.71271 5.1894,-0.32241 9.1281,-1.8208 1.323,-0.50328 3.9241,-1.2094 7.4084,-2.011 5.0733,-1.1672 12.4,-0.87091 17.33,0.70089 2.9748,0.94848 8.8926,4.3395 12.486,7.1546 2.556,2.0025 7.465,6.5014 9.09,8.3307 1.7423,1.9613 3.0304,3.6064 3.0304,3.8702 0,0.52311 -1.8194,1.0684 -7.1561,2.1447 -13.463,2.7154 -22.104,2.0675 -32.531,-2.4394 -1.3368,-0.57777 -6.3094,-3.63 -6.7353,-4.1342 -0.15188,-0.1798 -0.81192,-0.72932 -1.4668,-1.2212 -0.65488,-0.49188 -2.3353,-1.9394 -3.7344,-3.2168 -1.8489,-1.6882 -3.1137,-2.5947 -4.6302,-3.3188 -1.9883,-0.94937 -2.2108,-0.99583 -4.7323,-0.98805 -2.2488,0.007 -3.1656,0.15689 -6.11,0.99933 -5.9648,1.7066 -21.174,7.0939 -22.2,7.8638 -0.14552,0.10912 -1.3957,0.67878 -2.7781,1.2659 -3.073,1.3052 -12.407,5.7813 -12.888,6.1807 -0.27157,0.22538 0.16428,0.63296 1.9701,1.8423 1.2753,0.8541 2.7208,1.8485 3.2122,2.2097 0.49136,0.36122 1.9899,1.434 3.3301,2.384 4.7053,3.3353 5.4462,4.3002 4.052,5.2768 -0.90751,0.63564 -1.2582,0.51958 -3.2484,-1.075 -2.5121,-2.0127 -4.2572,-3.1701 -7.5406,-5.0013 -1.528,-0.85215 -3.2758,-1.8841 -3.8841,-2.2931 -1.3418,-0.90236 -1.8592,-0.92561 -3.0243,-0.13586 -0.49325,0.33436 -2.0279,1.2431 -3.4104,2.0195 -3.4731,1.9504 -5.709,3.4171 -8.0726,5.2953 -1.109,0.88124 -2.1573,1.5975 -2.3297,1.5917 -0.17237,-0.006 -0.64082,-0.18822 -1.041,-0.40532 z m 6.7988,-37.707 c -0.33141,-0.53625 0.273,-0.73171 2.5278,-0.81746 l 2.249,-0.0855 0.0669,-46.386 0.0669,-46.386 -0.59605,0.17814 c -0.86999,0.26 -4.2289,2.3747 -6.5331,4.1131 -2.4304,1.8336 -6.86,6.3627 -8.518,8.7095 -1.3937,1.9726 -4.1548,6.7696 -5.1581,8.9614 -3.0232,6.6042 -4.1632,10.819 -4.642,17.161 -0.34476,4.567 -0.0941,10.139 0.71142,15.814 0.20655,1.4552 0.44559,3.2072 0.5312,3.8932 l 0.15565,1.2474 2.5649,0.0755 c 2.0699,0.061 2.5649,0.15214 2.5649,0.47242 0,0.34563 -1.2641,0.39688 -9.7896,0.39688 -8.5255,0 -9.7896,-0.0513 -9.7896,-0.39688 0,-0.3235 0.52579,-0.41075 2.8443,-0.47197 l 2.8443,-0.0751 v -4.2319 c 0,-5.7352 0.68002,-12.387 1.8648,-18.24 1.2764,-6.3057 3.7488,-12.284 7.7806,-18.813 2.5848,-4.1856 3.4492,-5.3124 6.8911,-8.9828 4.9175,-5.2439 8.091,-7.6392 13.56,-10.235 1.3461,-0.63889 2.4474,-1.2314 2.4474,-1.3167 0,-0.3288 -14.912,0.51033 -19.711,1.1092 -0.58208,0.0726 -2.6062,0.32098 -4.4979,0.5519 -1.8918,0.23091 -3.9957,0.525 -4.6753,0.65354 -0.6796,0.12854 -2.793,0.31592 -4.6964,0.4164 l -3.4606,0.18269 v 2.4523 c 0,2.6419 -0.1302,3.2894 -0.66146,3.2894 -0.18714,0 -0.41253,-0.18833 -0.50086,-0.41851 -0.0883,-0.23019 -0.1606,-4.2686 -0.1606,-8.9742 0,-4.7056 0.0723,-8.744 0.1606,-8.9742 0.0883,-0.2302 0.31372,-0.41852 0.50086,-0.41852 0.53124,0 0.66146,0.64748 0.66146,3.289 v 2.452 l 3.3734,0.16264 c 1.8554,0.0895 5.7605,0.5149 8.6781,0.94542 7.6884,1.1345 16.371,1.8872 21.596,1.872 l 3.5263,-0.0102 -2.3812,-1.2071 c -5.4821,-2.779 -9.1572,-5.4122 -12.604,-9.0309 -7.7655,-8.1518 -13.315,-18.247 -15.704,-28.565 -1.0436,-4.5078 -1.7576,-10.972 -1.9135,-17.325 l -0.14104,-5.7461 -2.8099,-0.07475 c -2.2881,-0.06087 -2.8099,-0.14845 -2.8099,-0.47162 0,-0.34563 1.2641,-0.39688 9.7896,-0.39688 8.5255,0 9.7896,0.05125 9.7896,0.39688 0,0.32034 -0.49548,0.41145 -2.5695,0.47248 l -2.5695,0.0756 -0.1249,0.85044 c -2.7064,18.428 -1.6977,27.274 4.5014,39.478 4.0664,8.0055 11.28,15.619 18.018,19.017 0.75915,0.38286 1.4441,0.69611 1.5221,0.69611 0.078,0 0.11171,-21.58 0.0749,-47.956 l -0.0669,-47.956 -12.965,-0.07759 c -15.695,-0.09392 -20.312,0.142 -24.608,1.2575 -1.691,0.43908 -3.883,1.138 -4.8711,1.5531 -2.5967,1.091 -6.1204,3.4781 -8.0431,5.4487 -1.8565,1.9027 -2.8427,3.6831 -3.5086,6.3342 -0.85336,3.3972 -1.0382,2.1514 -1.0382,-6.9974 v -8.5769 l 13.097,-0.21067 c 18.106,-0.29126 105.78,-0.0851 106.11,0.24953 0.38103,0.38103 0.21175,17.085 -0.17445,17.213 -0.17313,0.05766 -0.41845,-0.53259 -0.59569,-1.4332 -0.49516,-2.5163 -1.666,-4.6347 -3.6679,-6.6366 -2.9135,-2.9135 -5.7896,-4.6763 -9.7296,-5.9635 -6.2289,-2.0349 -10.171,-2.3465 -28.31,-2.2379 l -12.965,0.07759 -0.0679,47.625 c -0.0373,26.194 -0.0101,47.777 0.0606,47.963 0.0951,0.25022 0.49063,0.15535 1.5231,-0.36539 6.2997,-3.1773 12.969,-9.9434 17.22,-17.469 2.1193,-3.7524 4.9303,-10.725 5.6309,-13.968 1.5631,-7.2344 1.481,-14.097 -0.32358,-27.065 l -0.11834,-0.85044 -2.5695,-0.0756 c -2.074,-0.06102 -2.5695,-0.15214 -2.5695,-0.47248 0,-0.34563 1.2641,-0.39688 9.7896,-0.39688 8.5255,0 9.7896,0.05125 9.7896,0.39688 0,0.31909 -0.54301,0.4228 -2.7704,0.52917 l -2.7704,0.13229 -0.0609,1.0583 c -0.0335,0.58208 -0.1182,3.2015 -0.18826,5.8208 -0.17674,6.6079 -1.0176,12.955 -2.4538,18.521 -1.7842,6.9152 -6.9118,16.578 -12.005,22.622 -5.0388,5.9801 -8.9772,9.1173 -15.735,12.534 l -2.3812,1.2039 3.7042,0.006 c 5.7438,0.009 18.824,-1.2364 25.003,-2.381 0.80036,-0.14825 3.0328,-0.34312 4.9609,-0.43303 l 3.5057,-0.16347 v -2.4511 c 0,-2.6407 0.13025,-3.2881 0.66146,-3.2881 0.18714,0 0.41253,0.18834 0.50086,0.41852 0.0883,0.23018 0.1606,4.2686 0.1606,8.9742 0,4.7056 -0.0723,8.744 -0.1606,8.9742 -0.20697,0.53935 -0.79475,0.53935 -1.0017,0 -0.0883,-0.23019 -0.1606,-1.5217 -0.1606,-2.8701 v -2.4516 l -3.3734,-0.17817 c -1.8554,-0.098 -4.3855,-0.34931 -5.6224,-0.55846 -5.192,-0.87794 -15.812,-1.8559 -23.349,-2.1503 -2.583,-0.10088 -4.6964,-0.11522 -4.6964,-0.0319 0,0.0833 1.2204,0.73476 2.712,1.4476 4.5768,2.1872 7.8607,4.5382 11.724,8.3933 2.9106,2.9045 7.26,8.11 7.26,8.689 0,0.0918 0.58436,1.0621 1.2986,2.1562 2.6405,4.0448 5.6602,10.751 6.9753,15.49 1.2906,4.651 2.2879,12.067 2.4728,18.389 0.0724,2.4738 0.15451,5.0932 0.18258,5.8208 l 0.051,1.3229 2.7781,0.13229 c 2.2343,0.10639 2.7781,0.20998 2.7781,0.52916 0,0.34563 -1.2641,0.39688 -9.7896,0.39688 -8.5255,0 -9.7896,-0.0513 -9.7896,-0.39688 0,-0.32034 0.49549,-0.41145 2.5695,-0.47247 l 2.5695,-0.0756 0.11834,-0.85044 c 1.7667,-12.695 1.8773,-19.608 0.42667,-26.647 -1.0934,-5.3057 -5.1921,-14.296 -8.8871,-19.493 -2.6071,-3.667 -7.6095,-8.3891 -11.627,-10.975 -1.1095,-0.71426 -3.6984,-2.0753 -3.9475,-2.0753 -0.078,0 -0.11173,20.866 -0.0749,46.368 l 0.0669,46.368 2.1828,0.0768 c 1.9653,0.0692 2.1828,0.12852 2.1828,0.59532 0,0.50456 -0.23726,0.51846 -8.8479,0.51846 -6.086,0 -8.9034,-0.0898 -9.0257,-0.28763 z"
       id="path1" /></g></svg>
