<?xml version="1.0" encoding="UTF-8"?>
<!-- Created with Inkscape (http://www.inkscape.org/) -->
<svg width="1097.6" height="896.92" version="1.1" viewBox="0 0 1097.6 896.92" xmlns="http://www.w3.org/2000/svg">
 <g transform="translate(-53.34 -24.64)">
  <path d="m55.071 919.45c-1.8199-1.8199-2.0207-2.8279-1.4446-7.25 0.99594-7.6452 3.8026-18.036 10.436-38.636 3.2764-10.175 7.5925-24.778 9.5914-32.451 4.5944-17.637 11.066-37.638 14.171-43.799 1.8047-3.5806 2.9561-4.75 4.6772-4.75 3.1508 0 4.6832 1.8261 4.6832 5.5811 0 3.8425-7.7204 29.097-20.457 66.919-10.513 31.218-12.832 38.797-11.645 38.063 3.3699-2.0827 19.316-28.996 30.93-52.204 3.8922-7.7776 10.023-18.773 13.625-24.435 3.6013-5.6616 6.5479-10.661 6.5479-11.109 0-0.44829 1.3197-0.81507 2.9326-0.81507 5.0084 0 4.8272 2.9579-0.75038 12.25-13.624 22.696-20.182 43.124-20.182 62.861 0 5.8281 0.38092 8.8895 1.1061 8.8895 1.7101 0 8.4603-5.6647 11.85-9.9441 1.8901-2.3864 4.0243-7.214 5.6134-12.698 2.9206-10.078 8.7493-23.054 13.378-29.782 2.4755-3.598 3.7482-4.5767 5.9516-4.5767 1.5415 0 4.2619-0.50865 6.0452-1.1303 6.1748-2.1525 15.762 2.9414 19.815 10.529 2.2851 4.2772 2.1692 17.439-0.2121 24.086-3.763 10.504-14.115 23.214-22.317 27.398-4.7433 2.4198-11.115 3.6143-14.606 2.7381-3.8226-0.9594-8.4051-5.346-9.1559-8.7645l-0.67865-3.0899-6.2479 6.1924c-5.0309 4.9862-7.0277 6.297-10.251 6.7293-3.3074 0.44361-4.379 0.13375-6.1642-1.7825-3.1576-3.3893-4.4016-9.317-3.9149-18.655 0.23645-4.5375 0.32496-8.25 0.1967-8.25-0.12827 0-2.3717 3.7125-4.9854 8.25-10.735 18.636-22.961 35.75-25.539 35.75-0.486 0-1.8348-0.95118-2.9974-2.1137zm83.114-26.404c4.3553-2.2236 13.986-13.209 16.616-18.955 3.1197-6.8144 3.5819-16.351 1.0303-21.261-2.1241-4.0876-6.8086-6.6098-10.692-5.7568-2.8051 0.6161-7.954 5.5795-7.954 7.6674 0 0.56321-2.2185 5.4143-4.93 10.78-7.0515 13.954-8.8549 26.292-4.2418 29.019 1.8673 1.1039 6.3826 0.44087 10.172-1.4937zm420.4 21.406c-1.6873-1.8698-1.8984-3.6982-1.8469-16l0.0581-13.889-4.0581-0.0156c-2.2319-9e-3 -6.6552-0.62674-9.8294-1.3737l-5.7713-1.358-5.6059 8.1237c-5.2465 7.603-7.3674 11.462-8.7994 16.01-0.57159 1.8154-0.66805 1.819-2.573 0.095-3.4987-3.1663-2.6754-5.7605 6.2662-19.744l4.9639-7.763-3.5481-3.9274c-3.84-4.2504-5.2554-9.0655-4.2461-14.445 1.7157-9.1454 12.762-14.705 23.243-11.7l3.1449 0.90194 8.3485-14.924c4.5917-8.2083 10.071-17.614 12.177-20.903 4.0733-6.3603 7.4201-8.2603 10.316-5.8566 2.4855 2.0628 1.2333 13.46-4.6014 41.88-2.7665 13.475-5.0331 25.062-5.0369 25.75-5e-3 0.91459 2.7435 1.2689 10.243 1.3205l10.25 0.0705-6 2.3532c-3.3 1.2942-7.6396 2.644-9.6435 2.9994-3.5831 0.63556-3.6546 0.74043-4.3099 6.3264-0.36652 3.124-1.7784 9.9351-3.1375 15.136-3.2931 12.601-5.9142 15.466-10.004 10.934zm11.841-26.139c0.51367-4.8044-0.76487-6.6475-1.7343-2.5-1.2554 5.3713-3.5034 18.378-3.4134 19.75 0.17131 2.6107 4.6171-12.287 5.1477-17.25zm-10.235-16.5c6e-3 -0.9625 0.28406-3.4013 0.61779-5.4196 0.57917-3.5026 0.42119-3.7643-3.4712-5.75-2.2429-1.1442-4.4514-2.0804-4.9077-2.0804-0.97643 0-6.8696 9.8206-6.4919 10.818 0.36285 0.95855 9.2812 4.0108 11.992 4.1042 1.5018 0.0517 2.2537-0.5044 2.261-1.6725zm-17.978-9.8026c2.6644-4.311 2.1476-5.109-1.9396-2.9955-3.2721 1.6921-3.8673 3.3737-1.8929 5.3481 1.5658 1.5658 1.316 1.7192 3.8325-2.3526zm24.359-18.125c1.9727-8.0725 3.4566-14.807 3.2974-14.967-0.36819-0.36818-13.689 22.299-13.689 23.294 0 0.96772 5.1616 6.3501 6.0897 6.3501 0.39353 0 2.3296-6.6048 4.3023-14.677zm-348.67 65.543c-1.153-0.64524-1.7193-2.1908-1.7094-4.6652 0.0143-3.5735 2.0545-13.59 3.6051-17.7 0.67053-1.7772 0.56664-1.8471-0.93265-0.62756-0.92798 0.75485-1.6872 1.9924-1.6872 2.75 0 0.75766-0.675 1.3776-1.5 1.3776-2.1935 0-1.9162-1.1702 2.4331-10.271 2.1632-4.5262 5.3997-11.824 7.1923-16.217 3.5029-8.585 6.5808-12.512 9.8061-12.512 2.871 0 5.3088 4.1226 4.5202 7.6441-0.56299 2.5138-0.27595 2.3255 2.396-1.5717 1.6696-2.4352 3.7695-4.8383 4.6664-5.3402 2.5052-1.402 6.0141-0.0631 7.3145 2.7909 1.5399 3.3797 1.4794 6.712-0.37927 20.884-0.85289 6.5034-1.3848 11.99-1.182 12.193 0.20279 0.2028 2.7787-5.7668 5.7243-13.266 6.4834-16.506 10.049-21.704 15.186-22.138 6.6858-0.56483 9.5169 5.6409 10.508 23.034l0.61155 10.73 3.7219-2.0918c3.4599-1.9446 3.7991-2.5577 4.8187-8.7111 1.9985-12.06 10.638-25.653 18.606-29.272 10.458-4.75 20.556 0.21849 20.556 10.114 0 6.0903-4.9871 11.987-17.75 20.987-3.4375 2.424-6.25 4.7891-6.25 5.2558 0 0.46673 1.0675 1.9161 2.3723 3.2209 6.0269 6.0269 19.667 5.763 31.628-0.61192 9.072-4.8351 8.968-4.6831 10.615-15.504 0.82417-5.416 2.5706-13.447 3.8811-17.847 10.752-36.102 12.751-40.731 17.847-41.322 6.0919-0.70664 6.8616 2.9958 3.7602 18.09-2.4309 11.831-5.1156 29.366-5.0881 33.233 0.0117 1.65 1.3814 5.4677 3.0437 8.4838 2.8426 5.1576 2.917 5.5609 1.2511 6.779-0.97421 0.71236-3.429 1.7919-5.4552 2.3989-3.2205 0.96488-3.8225 1.6543-4.786 5.4804-1.4418 5.7258-5.822 15.582-7.359 16.559-4.1003 2.6059-8.2533-0.49558-9.2826-6.9321l-0.66828-4.1792-5.9921 4.0692c-15.541 10.553-26.207 12.46-37.669 6.7322-3.9502-1.9739-7.0209-4.3428-8.4097-6.4876-1.2032-1.8581-2.5467-3.384-2.9856-3.3908-0.43892-7e-3 -3.2897 1.5815-6.3351 3.5296-7.286 4.6608-10.536 5.2887-13.263 2.5622-1.8766-1.8766-2.1051-3.2667-2.1129-12.854-9e-3 -11.46-0.87682-21.257-1.8806-21.239-0.68002 0.0128-1.6883 2.1116-9.4354 19.641-8.8524 20.03-12.314 24.609-16.82 22.251-3.9375-2.0605-4.1369-7.0988-1.2425-31.403 0.54534-4.5793 0.47106-4.8317-0.88281-3-0.81304 1.1-5.6275 9.9945-10.699 19.766-5.0713 9.771-9.9771 18.17-10.902 18.665-1.0157 0.5436-2.3634 0.51778-3.4052-0.0652zm98.168-44.458c4.993-4.4891 6.6534-8.4073 3.5627-8.4073-0.85 0-2.61 1.0646-3.9112 2.3657-2.8034 2.8034-6.9801 10.634-5.6719 10.634 0.5017 0 3.2108-2.0667 6.0203-4.5927zm-137.53 42.153c-6.3072-3.8708-9.1962-12.498-5.8061-17.338 2.046-2.9211 2.514-2.8408 7.4433 1.2775 2.986 2.4947 5.1674 3.5 7.5946 3.5h3.4054l-0.0682-10.75c-0.0685-10.787-2.4013-23.231-4.4205-23.579-1.4871-0.2567-9.9922 15.154-15.153 27.456-4.3031 10.258-4.7246 10.873-7.4408 10.873-5.4815 0-5.175-6.7313 0.95407-20.948 7.5112-17.422 14.309-27.307 19.714-28.663 3.7281-0.93569 7.4851 1.2606 9.6216 5.6247 2.2911 4.6799 4.7665 19.129 5.4832 32.006 0.51807 9.3078 0.35148 10.979-1.4457 14.5-2.9539 5.7878-5.5415 7.7138-10.984 8.1755-3.8019 0.32254-5.593-0.1073-8.8973-2.1352zm501.4 0.92852c-3.3811-1.9015-5.6034-6.0486-6.4153-11.972-0.60196-4.3918-1.5727-5.5795-2.8591-3.4982-1.6179 2.6179-11.269 6.297-17.742 6.7635-11.148 0.8034-19.409-3.9427-23.372-13.428-1.6047-3.8407-1.8121-13.075-0.37828-16.846 0.74438-1.9579 0.61134-3.3663-0.52568-5.5651-0.83727-1.6191-1.868-2.9438-2.2905-2.9438s-2.0481 3.9375-3.6125 8.75c-2.6686 8.2095-15.409 34.931-15.615 32.75-0.0518-0.55-0.0357-4.42 0.036-8.6001 0.0835-4.8736-0.63488-10.597-2.0025-15.953-1.3495-5.2856-1.9043-9.6556-1.5106-11.9 1.2907-7.3579 3.7302-12.952 7.211-16.536 1.9786-2.0373 5.2712-7.1481 7.317-11.357 4.3489-8.9482 6.737-11.432 10.557-10.978 4.5677 0.5422 5.0282 2.6463 2.5044 11.445l-2.2604 7.8802 8.7387 9.0587 4.8341-2.9887c6.7673-4.1839 15.607-4.7748 20.608-1.3776 1.917 1.3022 4.0478 3.4791 4.7353 4.8376 1.85 3.656 1.5436 10.532-0.66178 14.854-3.5441 6.9471-13.811 14.042-20.392 14.094-3.8168 0.0296-3.0447 2.0328 1.6875 4.378 5.2641 2.6088 10.926 1.549 18.817-3.522 3.4806-2.2368 6.4343-4.1579 6.5638-4.2692 0.12944-0.11127 1.1186-4.4951 2.1982-9.7418 7.415-36.037 22.294-61.965 30.412-52.994 0.91025 1.0058 1.655 2.908 1.655 4.227 0 3.4427-9.4971 30.928-14.132 40.899-2.1614 4.6499-4.8605 12.075-5.9979 16.5-2.4852 9.6693-3.0143 20.616-1.0298 21.306 2.3111 0.80378 12.426-10.769 20.196-23.109 7.7012-12.229 9.6527-14.203 12.995-13.142 3.8119 1.2099 4.9681 3.4105 4.9681 9.456 0 12.521-9.3266 33.034-15.019 33.034-2.5922 0-4.9649-3.2969-5.771-8.0186l-0.73385-4.2988-2.5979 3.9256c-5.3321 8.0573-15.2 12.207-21.115 8.8805zm-29.465-35.84c4.2299-1.7674 9.7023-8.0646 9.7023-11.165 0-1.7967-0.68633-2.6184-2.585-3.0949-5.0264-1.2616-15.853 9.4206-14.122 13.933 0.77912 2.0304 2.7112 2.1204 7.0043 0.32666zm-218.3 35.667c-0.825-0.2893-3.075-2.0164-5-3.838s-4.7077-4.4241-6.1837-5.7833c-3.7214-3.4268-4.3477-8.1723-2.95-22.352 2.0629-20.93 8.6949-44.053 14.366-50.09 4.5188-4.81 9.7679-1.3925 9.7679 6.3596 0 2.2922-1.9663 10.63-4.3696 18.528-2.4033 7.898-4.699 15.935-5.1016 17.86l-0.73206 3.5 4.8516-4.5856c6.2323-5.8906 19.166-16.306 22.195-17.872 3.1659-1.6378 7.0296-0.50689 8.1267 2.3785 1.3482 3.546 0.27248 6.0499-4.1132 9.5744-5.957 4.7871-18.473 20.302-21.976 27.242-2.9325 5.8092-3.0008 6.2015-1.2968 7.4475 0.98932 0.72341 2.7253 1.3433 3.8576 1.3775 4.8559 0.14667 11.085 1.1493 12.782 2.0571 1.7472 0.93504 1.752 1.1146 0.10551 3.9019-0.94925 1.607-3.0536 3.3846-4.6764 3.9503-3.0138 1.0506-16.942 1.2949-19.652 0.34464zm320.04-3.4408c-4.6312-1.3948-8.7627-4.4428-10.443-7.7041-0.75686-1.4691-1.9319-6.128-2.6111-10.353-1.1747-7.3068-1.1312-7.8138 0.8912-10.385 1.1694-1.4867 2.1262-3.2678 2.1262-3.9582s1.9776-3.9416 4.3948-7.225c6.61-8.979 14.775-12.282 21.616-8.7443 4.6128 2.3854 5.6845 7.5716 3.0294 14.661-1.1673 3.1168-3.0846 6.8905-4.2609 8.3858-2.6021 3.308-10.496 8.4472-12.976 8.4472-1.3906 0-1.8042 0.79156-1.8042 3.453 0 1.8991 0.51235 4.5774 1.1386 5.9518 1.1958 2.6246 6.3005 5.5952 9.6147 5.5952 3.511 0 8.658-4.4226 13.643-11.723l4.8966-7.1708-1.6175-5.8029c-4.9684-17.824-3.6448-43.242 2.9399-56.454 4.5986-9.2272 11.82-11.747 28.471-9.9356 8.2315 0.8955 11.241 1.7316 17.4 4.8348l7.4476 3.7521-14.435 9-11.228-0.29692c-6.698-0.17712-12.04 0.13744-13.24 0.77965-4.6642 2.4962-8.0085 13.349-8.017 26.017-6e-3 8.5014 0.41314 10.709 3.9847 21 4.4229 12.744 5.2992 21.558 2.4286 24.429-2.0362 2.0362-2.6327 1.9853-5.7848-0.49418-1.5945-1.2542-3.2246-4.102-4.1499-7.25-0.83817-2.8514-1.9191-5.8082-2.402-6.5706-1.0138-1.6003-1.2995-1.3107-8.5923 8.7086-6.2185 8.5434-13.89 11.635-22.463 9.0528zm10.375-32.952c3.0907-3.673 3.7419-7.2795 0.83889-4.6454-2.4312 2.206-5.571 7.7221-4.3954 7.7221 0.5322 0 2.1326-1.3845 3.5565-3.0767zm-372.41 30.981c0-1.1528-0.70194-4.5107-1.5599-7.4618-1.4616-5.0276-1.4278-6.0455 0.53571-16.154 3.0059-15.475 3.818-18.03 6.276-19.752 2.9627-2.0752 5.3522-1.9321 7.7482 0.46382 2.6697 2.6697 2.5777 7.2653-0.42976 21.464-2.0275 9.5724-3.0208 12.246-6 16.147-1.9636 2.5717-3.5702 5.2861-3.5702 6.032s-0.675 1.3562-1.5 1.3562c-0.85626 0-1.5-0.89957-1.5-2.0961zm660.14 1.2025c-1.606-1.0175-3.0332-7.6585-3.0944-14.399-0.099-10.937 5.3057-29.211 10.04-33.946 3.1641-3.1641 4.172-3.3635 6.2911-1.2444 1.3572 1.3572 1.8677 1.3046 4.8214-0.49626 4.8095-2.9323 5.0844-2.5379 1.7129 2.4576-3.1708 4.6983-3.9502 8.138-5.871 25.911-1.8266 16.902-7.5026 25.77-13.9 21.716zm-181.21-2.6922c-4.8148-5.1354-2.7632-17.631 8.5266-51.932 6.3773-19.376 19.496-51.564 22.306-54.732 2.8071-3.164 9.2426-1.2508 9.2426 2.7476 0 0.74512-3.3298 9.6194-7.3997 19.721-12.616 31.314-26.142 73.573-24.177 75.538 1.0537 1.0537 11.214-4.4359 22.79-12.312 6.0165-4.0941 11.332-7.4438 11.811-7.4438 1.9308 0-1.5456 6.4097-6.2947 11.606-9.9175 10.851-23.362 19.394-30.522 19.394-2.8586 0-4.4874-0.67029-6.2832-2.5858zm212.84 1.0204c-6.4965-3.5249-7.983-13.905-3.419-23.874 5.2816-11.537 11.908-16.936 17.96-14.635 3.2389 1.2314 5.3096 4.345 6.5341 9.8246 1.0693 4.7858 0.2106 5.3731-3.775 2.5814-2.3028-1.613-2.4599-1.5713-4.7134 1.25-3.8589 4.8315-8.5053 14.305-8.1668 16.652 1.1901 8.2498 24.817 0.0611 24.817-8.6011 0-2.8368 3.1065-6.6319 5.4286-6.6319 3.2042 0 4.8303 3.1661 4.2299 8.2357-0.4625 3.9052-0.2584 4.9806 1.0398 5.4788 2.147 0.82388 6.2646-1.5873 8.2234-4.8154 0.8681-1.4305 2.4783-3.8858 3.5783-5.4562 1.5212-2.1717 1.9643-4.3023 1.8511-8.899-0.175-7.1011-2.4582-13.58-9.9011-28.097-6.4289-12.539-8.45-18.867-8.45-26.457 0-4.6292 0.553-6.4819 3.0681-10.279 3.9437-5.9539 12.624-11.741 9.8573-6.5715-4.2161 7.8779-3.1615 12.47 6.0082 26.164 9.6581 14.423 12.685 20.579 14.15 28.775 1.4367 8.0396 0.4564 16.874-2.5832 23.28-5.7438 12.104-23.632 21.44-31.082 16.222-1.8219-1.2761-2.4664-1.1237-6.3888 1.5107-8.2512 5.5415-22.129 7.6738-28.267 4.3432zm-103.44-1.0479c-1.7774-0.87653-3.9128-3.1141-4.8433-5.075l-1.6642-3.5072-2.6567 2.5447c-3.7233 3.5662-9.7487 5.8993-13.25 5.1304-1.9344-0.42487-3.6566-1.9264-5.2239-4.5548l-2.3382-3.921-2.3385 2.4892c-3.1531 3.3562-9.901 6.5069-13.936 6.5069-4.3748 0-10.294-3.4334-12.66-7.3443-1.4889-2.46-1.8872-4.9194-1.8069-11.156 0.1268-9.8441 4.2534-21.368 10.87-30.357 6.1108-8.301 10.484-11.393 16.849-11.915 6.1769-0.50651 9.8661 1.7823 11.667 7.2383 1.0447 3.1655 1.3227 3.3489 3.5428 2.3374 1.8186-0.8286 2.7841-0.78649 3.9387 0.17179 2.1879 1.8158 1.9249 4.5038-1.5314 15.652-1.916 6.1798-3.2806 13.146-3.648 18.623-0.5733 8.5463-0.5354 8.75 1.6308 8.75 1.2199 0 4.099-1.2944 6.3981-2.8764 3.877-2.6678 4.274-3.3749 5.4748-9.75 1.6149-8.574 8.1459-22.304 12.253-25.761 2.4713-2.0794 3.4862-2.3974 5.0244-1.5742 2.6867 1.4379 2.4378 3.0755-2.1985 14.461-3.2313 7.9354-4.1802 11.693-4.5958 18.2l-0.5237 8.2001 2.8355 0.71168c3.7529 0.94191 12.024-0.86134 16.755-3.6532 3.0635-1.8075 3.6916-2.676 3.239-4.4789-1.0632-4.2361 3.5801-23.029 6.967-28.198 1.7886-2.7299 5.9943-3.0374 7.2674-0.53141 0.524 1.0314 0.4711 7.4422-0.1288 15.612l-1.0178 13.862 7.8279 6.7582-2.8058 2.5084c-1.5431 1.3796-3.4701 2.5084-4.2821 2.5084-2.4955 0-7.8134-2.6132-9.7551-4.7935l-1.843-2.0695-4.8003 3.4487c-5.151 3.7007-14.694 7.4287-18.92 7.3916-1.4264-0.0125-4.024-0.72826-5.7725-1.5905zm-33.953-11.725c4.1529-3.403 4.4509-4.004 5.8866-11.873 1.2832-7.0331 1.3027-8.4099 0.129-9.0884-1.0314-0.59628-1.3833-3.3306-1.3833-10.75v-9.9503h-2.6548c-10.373 0-24.688 36.657-17.228 44.117 3.197 3.197 9.6139 2.164 15.251-2.4549zm-213.36-38.148c-1.2795-2.0702-2.5328-5.9128-2.7851-8.539-0.41416-4.3102-0.20008-4.9444 2.1998-6.5169 5.2393-3.4329 10.398 1.833 6.9499 7.0948-0.9529 1.4543-2.2513 4.6874-2.8854 7.1846l-1.1529 4.5404zm-324.26-15.968c-5.2694-5.9932-4.8235-11.547 0.92695-11.547 3.5825 0 5.192 3.5919 4.5928 10.25-0.28458 3.1625-0.7992 5.7076-1.1436 5.6558s-2.3137-2.0135-4.3762-4.3593zm156.29-76.999c-1.8036-2.1733-0.44491-4.9801 4.2496-8.7787 3.8957-3.1522 29.043-20.815 33.328-23.409 3.761-2.2764-44.963-24.568-82.118-37.569-30.179-10.561-35.896-12.058-46.5-12.181-12.356-0.14336-17.693 2.2159-28.66 12.67-14.922 14.225-29.516 23.405-47.285 29.743-26.564 9.4759-49.905 9.7599-91.055 1.1079-11.958-2.5142-13-2.93-13-5.187 0-4.8235 26.529-30.419 42.674-41.173 10.462-6.9681 26.216-15.07 32.326-16.623 23.287-5.9212 42.718-4.1467 76.233 6.9618 7.4379 2.4653 13.478 3.863 16.5 3.8182l4.7671-0.0706-4.5-1.949c-2.475-1.0719-7.3886-3.1776-10.919-4.6794-10.153-4.3185-46.685-22.618-56.581-28.343-10.672-6.1734-23.743-12.355-28.166-13.319-5.6612-1.2347-10.322 0.95065-20.334 9.5345-22.959 19.684-47.886 34.778-65 39.358-8.8288 2.3626-31.553 3.0996-48.164 1.562-13.483-1.248-24.091-3.9004-38.086-9.5232-5.6562-2.2725-6.75-3.0938-6.75-5.0682 0-7.5284 35.627-38.687 58.095-50.808 28.804-15.54 61.964-16.651 89.135-2.9883 5.4897 2.7604 14.77 6.5074 14.77 5.9633 0-0.20488-4.3875-4.066-9.75-8.5802s-15.15-13.255-21.75-19.423c-19.75-18.458-21.03-19.517-25.604-21.166-5.274-1.9014-10.505-1.4671-25.092 2.0834-16.035 3.903-36.262 5.8392-47.842 4.5795-29.718-3.233-59.47-18.838-88.803-46.578-8.1131-7.6724-13.021-14.134-13.408-17.652-0.34596-3.1445 3.8152-5.032 19.331-8.7682 18.489-4.4523 34.885-6.3931 54.919-6.5005 15.417-0.0827 18.571 0.18888 26.5 2.2819 9.5593 2.5234 22.701 8.1618 29.119 12.493 2.1347 1.4408 7.962 6.6689 12.949 11.618l9.0682 8.9983-7.115-14.243c-7.4274-14.868-10.258-21.403-15.586-35.985-2.5188-6.893-4.0911-9.5687-7.4325-12.649-4.8505-4.4711-6.379-4.8712-31.002-8.116-18.1-2.3852-28.963-5.622-42.915-12.787-20.864-10.715-42.324-31.23-55.135-52.706-2.9528-4.95-6.7352-11.025-8.4053-13.5-1.6701-2.475-3.0385-5.0539-3.0408-5.731-7e-3 -2.1344 4.8344-2.5821 21.403-1.979 26.317 0.95801 50.95 5.413 64.191 11.609 16.632 7.7829 31.865 21.888 42.733 39.569 2.0178 3.2828 3.6687 5.172 3.6687 4.1982 0-1.631-2.6207-16.214-5.0619-28.167-0.56165-2.75-1.4666-10.845-2.011-17.989-1.689-22.163-3.0018-24.224-21.678-34.032-27.103-14.232-40.897-28.446-53.207-54.824-5.86-12.557-8.1602-19.506-12.02-36.317-3.1728-13.817-3.7813-20.339-1.8978-20.339 3.8288 0 28.356 12.907 42.907 22.579 25.287 16.809 40.089 40.927 43.527 70.921l0.6877 6 2.427-10.5c5.249-22.709 7.424-34.838 7.6213-42.5 0.18279-7.1006-0.10768-8.5656-2.5835-13.031-1.5342-2.7668-6.4398-9.2918-10.901-14.5-16.288-19.014-19.546-26.799-20.496-48.969-0.67998-15.864 0.51899-26.601 4.8401-43.342 4.3288-16.772 14.378-40.737 18.038-43.019 2.4447-1.5244 4.7886 0.96363 10.696 11.354 5.9163 10.406 8.8308 17.178 12.929 30.043 8.6652 27.199 8.692 53.579 0.0901 88.826-1.6593 6.7991-2.8478 12.531-2.6411 12.738s1.4421-2.2062 2.7454-5.362c1.3033-3.1558 4.929-11.138 8.057-17.738 6.5026-13.72 18.817-41.646 22.936-52.014 3.4883-8.7799 4.5746-16.558 6.0036-42.986 1.8491-34.199 3.2004-40.198 12.728-56.5 8.714-14.91 22.639-29.922 39.304-42.372 5.2474-3.9202 11.687-8.2526 14.311-9.6276 4.6865-2.456 4.7958-2.4658 6.2094-0.55887 1.0221 1.3789 1.43 4.7097 1.4083 11.5-0.0972 30.338-4.2381 50.924-13.69 68.059-8.4931 15.396-15.315 23.344-38.279 44.595-10.696 9.8981-15.412 16.382-21.749 29.905-13.191 28.149-27.306 59.779-26.87 60.214 0.25253 0.25253 1.0997-0.5924 1.8826-1.8776 1.7608-2.8906 15.731-28.813 18.601-34.516 3.1994-6.3566 11.623-15.944 18.484-21.037 6.4176-4.764 16.924-10.008 26.524-13.24 14.055-4.7312 37.612-7.8678 49.515-6.5931 5.9733 0.63968 6.6117 0.92461 6.6117 2.951 0 1.2336-1.9684 6.2603-4.3741 11.17-15.868 32.385-39.328 52.301-74.126 62.925-9.5174 2.9057-14.172 3.7603-22.5 4.1308-15.343 0.6825-16.662 1.0191-21.514 5.491-3.1626 2.9152-5.2847 6.2658-7.8507 12.396-6.5254 15.588-15.537 51.661-17.108 68.485l-0.60714 6.5 3.9288-4.2536c3.926-4.2505 5.8341-8.3952 13.982-30.372 4.4919-12.115 11.655-23.467 18.852-29.877 8.1144-7.2266 28.616-15.801 44.017-18.409 12.781-2.1643 42.391-3.8844 45.635-2.651 3.1079 1.1816 3.3109 0.40445-4.326 16.562-6.286 13.3-15.102 25.749-23.597 33.32-9.4061 8.3835-25.212 14.716-45.413 18.195-22.149 3.8139-37.068 9.9045-45.655 18.638-2.8353 2.8836-5.7091 6.9214-6.3861 8.9729-2.4201 7.3329 0.86802 38.339 6.9864 65.88 4.0488 18.225 9.9139 36.495 11.716 36.495 0.91112 0-0.41896-17.073-2.2728-29.172-3.5444-23.135 0.6889-41.197 13.703-58.466 11.507-15.27 28.087-30.099 43.423-38.839 9.1345-5.2056 13.127-5.7976 14.059-2.0847 1.6179 6.4461-4.9793 44.548-10.559 60.981-6.4242 18.922-11.206 26.062-34.015 50.79-17.542 19.018-20.555 24.698-18.717 35.291 1.3762 7.9331 18.693 45.142 27.357 58.783 5.6351 8.8721 14.577 20.833 15.148 20.262 0.23169-0.23169-1.8717-4.2173-4.6741-8.8569-16.999-28.142-21.638-61.421-12.48-89.511 4.4349-13.602 18.794-43.862 26.913-56.714 2.5527-4.0411 10.325-14.352 13.351-17.713 4.0057-4.4481 5.4175-3.639 9.5969 5.5 13.378 29.254 18.261 48.272 17.139 66.75-1.2315 20.269-6.8661 38.834-22.514 74.182-5.444 12.297-10.395 24.15-11.003 26.338-1.548 5.5761-1.384 11.902 0.42057 16.221 1.8937 4.5322 16.774 18.991 28.964 28.144 9.2369 6.9356 31.75 22.114 32.8 22.114 0.83753 0-2.723-7.7954-6.9374-15.189-11.459-20.102-16.228-31.757-20.42-49.895-6.0215-26.058-2.3208-49.811 12.217-78.416 12.024-23.658 17.136-31.368 20.057-30.247 2.0067 0.77004 19.228 35.18 22.648 45.255 3.9404 11.605 5.5603 25.497 4.8335 41.448-0.70866 15.552-3.5855 27.627-11.237 47.165-13.605 34.742-14.823 40.142-10.212 45.268 4.1247 4.5861 59.894 32.503 75.75 37.919 2.475 0.84537 7.0875 2.691 10.25 4.1013 3.1625 1.4103 5.75 2.3866 5.75 2.1696 0-0.21705-3.7125-2.8911-8.25-5.9424-18.856-12.68-30.476-25.232-39.861-43.059-6.3641-12.089-8.3786-18.12-10.45-31.287-1.2455-7.9175-1.5443-13.988-1.1219-22.792 0.97102-20.238 6.7932-48.838 10.209-50.148 3.6025-1.3824 27.66 19.549 36.161 31.463 11.617 16.28 18.419 41.083 23.31 85 1.1446 10.277 2.5397 22.511 3.1003 27.186 1.6607 13.85 4.6239 16.905 22.364 23.057 31.226 10.829 70.519 26.682 89.289 36.023l11.25 5.5987 11.25-5.5987c18.77-9.3411 58.064-25.194 89.289-36.023 17.74-6.1523 20.703-9.2073 22.364-23.057 0.56058-4.675 1.9557-16.909 3.1003-27.186 4.891-43.917 11.693-68.72 23.31-85 8.5014-11.914 32.559-32.845 36.161-31.463 3.4157 1.3107 9.2379 29.911 10.209 50.148 0.42241 8.804 0.12361 14.874-1.1219 22.792-2.0712 13.166-4.0857 19.198-10.45 31.287-9.385 17.827-21.005 30.379-39.861 43.059-4.5375 3.0513-8.25 5.7254-8.25 5.9424 0 0.21706 2.5875-0.75926 5.75-2.1696 3.1625-1.4103 7.775-3.2559 10.25-4.1013 15.856-5.4158 71.625-33.333 75.75-37.919 4.6108-5.1265 3.3926-10.526-10.212-45.268-7.6511-19.538-10.528-31.614-11.237-47.165-0.72685-15.951 0.89312-29.843 4.8335-41.448 3.4208-10.075 20.642-44.485 22.648-45.255 2.9207-1.1208 8.0328 6.5886 20.057 30.247 14.538 28.605 18.239 52.358 12.217 78.416-4.1915 18.139-8.9612 29.793-20.42 49.895-4.2145 7.3935-7.775 15.189-6.9374 15.189 1.0502 0 23.564-15.179 32.8-22.114 12.19-9.153 27.07-23.612 28.964-28.144 1.8046-4.319 1.9686-10.645 0.4205-16.221-0.6076-2.1886-5.5589-14.041-11.003-26.338-23.192-52.387-27.416-77.035-18.371-107.18 5.422-18.071 15.929-42 18.442-42 2.269 0 11.092 10.316 17.502 20.463 4.0913 6.4769 14.761 27.228 19.45 37.826 10.052 22.721 12.779 35.366 11.789 54.652-0.9833 19.15-6.4294 36.567-16.806 53.747-2.8025 4.6396-4.9058 8.6252-4.6741 8.8569 0.571 0.57104 9.5134-11.39 15.148-20.262 8.664-13.641 25.981-50.85 27.357-58.783 1.8376-10.592-1.175-16.273-18.718-35.291-22.809-24.727-27.591-31.868-34.015-50.79-5.5794-16.433-12.177-54.535-10.559-60.981 0.9319-3.7129 4.9244-3.1208 14.059 2.0847 15.336 8.7396 31.916 23.569 43.423 38.839 13.014 17.269 17.248 35.331 13.703 58.466-1.8538 12.1-3.1839 29.172-2.2728 29.172 1.802 0 7.6672-18.27 11.716-36.495 6.1184-27.541 9.4065-58.547 6.9864-65.88-0.677-2.0515-3.5508-6.0893-6.3861-8.9729-8.5871-8.7334-23.507-14.824-45.655-18.638-20.201-3.4785-36.007-9.8111-45.413-18.195-8.4944-7.571-17.311-20.02-23.597-33.32-7.637-16.158-7.434-15.381-4.326-16.562 3.244-1.2334 32.855 0.48671 45.635 2.651 15.401 2.608 35.902 11.182 44.017 18.409 7.1971 6.4097 14.36 17.762 18.852 29.877 8.1483 21.977 10.056 26.122 13.982 30.372l3.9289 4.2536-0.6072-6.5c-1.5715-16.824-10.583-52.897-17.108-68.485-2.566-6.1298-4.6881-9.4804-7.8507-12.396-4.8514-4.4718-6.1703-4.8085-21.514-5.491-8.3201-0.3701-12.991-1.2267-22.5-4.126-34.779-10.605-58.252-30.533-74.126-62.93-2.4058-4.9101-4.3741-9.9368-4.3741-11.17 0-2.0264 0.63836-2.3114 6.6117-2.951 11.903-1.2747 35.46 1.8619 49.515 6.5931 9.6005 3.2316 20.107 8.476 26.524 13.24 6.8606 5.0929 15.284 14.68 18.484 21.037 2.8703 5.7027 16.84 31.625 18.601 34.516 5.8436 9.5929-4.8148-15.291-24.987-58.337-6.3375-13.524-11.053-20.007-21.749-29.905-22.964-21.251-29.786-29.198-38.279-44.595-9.4519-17.135-13.593-37.721-13.69-68.059-0.022-6.7903 0.3861-10.121 1.4082-11.5 1.4136-1.907 1.5229-1.8971 6.2094 0.55887 2.6238 1.375 9.0638 5.7074 14.311 9.6276 16.665 12.45 30.59 27.462 39.304 42.372 9.5274 16.302 10.879 22.301 12.728 56.5 1.429 26.429 2.5152 34.207 6.0036 42.986 4.1191 10.367 16.433 38.293 22.936 52.014 3.1281 6.6 6.7537 14.582 8.057 17.738 1.3033 3.1558 2.5387 5.5686 2.7454 5.362s-0.9818-5.9387-2.6412-12.738c-8.6018-35.246-8.575-61.626 0.09-88.826 4.0987-12.865 7.0132-19.638 12.93-30.043 5.9078-10.391 8.2516-12.879 10.696-11.354 3.6609 2.2826 13.71 26.248 18.038 43.019 4.3211 16.741 5.5201 27.478 4.8401 43.342-0.9503 22.17-4.2089 29.956-20.496 48.969-4.4615 5.2082-9.367 11.733-10.901 14.5-2.4759 4.4649-2.7663 5.93-2.5836 13.031 0.1973 7.6623 2.3723 19.791 7.6212 42.5l2.4271 10.5 0.6877-6c1.2167-10.616 2.7058-16.822 6.0129-25.061 9.7963-24.405 25.065-40.06 55.406-56.811 9.2763-5.1213 23.274-11.628 25.015-11.628 1.8835 0 1.2749 6.522-1.8978 20.339-3.9022 16.994-6.1806 23.894-11.983 36.29-6.2205 13.288-12.271 22.506-20.498 31.227-8.9149 9.4503-17.367 15.548-32.746 23.624-18.676 9.8073-19.989 11.868-21.678 34.032-0.5443 7.1438-1.4493 15.239-2.0109 17.989-2.4412 11.953-5.062 26.536-5.062 28.167 0 0.97381 1.651-0.91536 3.6688-4.1982 10.868-17.681 26.101-31.786 42.732-39.569 13.241-6.1964 37.874-10.651 64.192-11.609 16.568-0.60312 21.41-0.15543 21.403 1.979 0 0.67702-1.3707 3.256-3.0408 5.731s-5.4525 8.55-8.4053 13.5c-12.811 21.476-34.271 41.991-55.135 52.706-13.952 7.1652-24.815 10.402-42.915 12.787-24.623 3.2448-26.152 3.645-31.002 8.116-3.3414 3.08-4.9136 5.7557-7.4324 12.649-5.3284 14.582-8.1591 21.117-15.586 35.985l-7.115 14.243 9.0682-8.9983c4.9875-4.9491 10.815-10.177 12.949-11.618 6.4178-4.3316 19.559-9.97 29.119-12.493 17.189-4.5375 52.697-2.6977 81.418 4.2186 15.516 3.7362 19.677 5.6237 19.331 8.7682-0.3871 3.5185-5.295 9.9799-13.408 17.652-29.333 27.739-59.085 43.345-88.803 46.578-11.579 1.2597-31.806-0.67654-47.841-4.5795-14.587-3.5505-19.818-3.9848-25.092-2.0834-4.5743 1.6492-5.8543 2.7073-25.604 21.166-6.6 6.1684-16.388 14.909-21.75 19.423s-9.75 8.3753-9.75 8.5802c0 0.54402 9.2804-3.2029 14.77-5.9633 27.172-13.663 60.331-12.551 89.135 2.9883 22.468 12.121 58.095 43.279 58.095 50.808 0 1.9744-1.0938 2.7957-6.75 5.0682-13.995 5.6228-24.602 8.2752-38.086 9.5232-16.611 1.5375-39.336 0.80056-48.164-1.562-17.114-4.5796-42.041-19.673-65-39.358-10.012-8.5839-14.672-10.769-20.334-9.5345-4.4228 0.96463-17.494 7.1458-28.166 13.319-9.8958 5.7244-46.428 24.024-56.581 28.343-3.5306 1.5017-8.4442 3.6074-10.919 4.6794l-4.5 1.949 4.7671 0.0706c3.0221 0.0448 9.0621-1.3529 16.5-3.8182 33.515-11.108 52.946-12.883 76.233-6.9618 6.1092 1.5534 21.864 9.6549 32.326 16.623 16.145 10.753 42.674 36.349 42.674 41.173 0 2.257-1.0421 2.6728-13 5.187-23.493 4.9395-31.57 6.0047-46 6.0666-18.004 0.0772-30.147-1.8565-45.055-7.1745-17.769-6.3386-32.363-15.518-47.285-29.743-10.967-10.455-16.303-12.814-28.66-12.67-10.604 0.12303-16.321 1.6206-46.5 12.181-23.835 8.3404-45.021 17.181-66 27.541-15.574 7.691-17.746 9.0424-16.118 10.028 4.285 2.5936 29.433 20.256 33.328 23.409 4.6945 3.7986 6.0532 6.6054 4.2496 8.7787-2.1446 2.584-5.1359 1.5653-12.872-4.3836-7.5058-5.772-16.24-11.305-29.338-18.585l-6.75-3.7516-6.75 3.7516c-13.099 7.2803-21.833 12.813-29.338 18.585-7.7358 5.9489-10.727 6.9676-12.872 4.3836zm22.082-110.44c-2.7348-1.7514 0.0727-3.1062 6.4371-3.1062h6.441v-274.12l-5.7569 3.0684c-14.597 7.7802-32.738 25.005-43.232 41.049-7.473 11.425-9.2927 14.932-15.91 30.665-10.749 25.554-12.48 49.425-6.7693 93.335l1.2355 9.5 7.7856 0.2933c5.5338 0.20848 7.6692 0.64231 7.3834 1.5-0.59238 1.7771-56.893 1.7347-57.486-0.0433-0.31022-0.93065 1.63-1.25 7.5947-1.25h8.0114l0.53237-5.25c0.29281-2.8875 0.75883-12 1.0356-20.25 0.49124-14.643 3.0708-34.818 6.0262-47.133 3.8045-15.853 13.852-37.82 25.132-54.95 6.9447-10.545 10.395-14.696 22.248-26.759 10.493-10.68 21.094-18.325 34.26-24.706l8.4096-4.076-18 0.52215c-19.276 0.55917-43.481 2.6554-60.5 5.2395-5.775 0.87687-15.225 1.8796-21 2.2284l-10.5 0.63405-0.5 8.2614c-0.275 4.5438-0.95 8.2563-1.5 8.25-0.64169-7e-3 -1-9.6856-1-27.011 0-17.167 0.3642-27.091 1-27.25 0.58814-0.14704 1.1188 3.0995 1.2886 7.8827l0.28854 8.1327 3.0865 0.61729c1.6976 0.33951 5.405 0.61729 8.2388 0.61729s11.44 0.86944 19.125 1.9321c19.508 2.6975 45.108 4.9416 63.973 5.6078l16 0.56502-8.5-4.3474c-15.314-7.8324-23.053-13.519-35.537-26.114-25.605-25.832-43.229-60.008-48.944-94.915-1.9198-11.725-3.5026-29.696-3.5102-39.854-5e-3 -6.3938-0.28994-13.031-0.63369-14.75l-0.625-3.125h-7.875c-6.3333 0-7.875-0.29365-7.875-1.5 0-1.2988 3.8889-1.5 29-1.5s29 0.20115 29 1.5c0 1.2051-1.5334 1.5-7.8002 1.5h-7.8002l-1.2259 10.25c-5.0618 42.323-3.7168 66.136 4.9848 88.25 9.4867 24.11 21.131 42.641 35.625 56.697 9.4077 9.1233 26.753 21.803 29.826 21.803 1.1808 0 1.3906-21.259 1.3906-140.96v-140.96l-38.75-0.2945c-21.312-0.16198-44.684 0.026-51.936 0.41776-21.638 1.1689-36.475 6.0683-50.46 16.663-10.534 7.98-15.87 15.44-17.937 25.075-0.59567 2.7775-1.4957 5.05-2.0002 5.05-1.0674 0-1.616-49.548-0.5611-50.678 0.74874-0.8017 207.07-1.4421 270.89-0.8408l80.75 0.7607v25.379c0 14.378-0.39023 25.379-0.90026 25.379-0.49514 0-1.4555-2.3625-2.1342-5.25-2.2808-9.7041-7.2274-16.796-16.767-24.039-12.017-9.1241-22.848-13.566-39.297-16.117-11.395-1.7669-17.728-1.9325-66.651-1.7427l-38.25 0.14839v141c0 112.13 0.2559 141 1.25 141 1.5259-3e-3 11.781-6.1138 17.25-10.279 14.416-10.978 31.151-31.2 39.491-47.719 5.4708-10.836 12.197-28.444 14.283-37.392 2.9734-12.754 3.1038-45.5 0.26624-66.858l-1.9596-14.75h-7.7904c-6.2581 0-7.7904-0.29503-7.7904-1.5 0-1.2988 3.8889-1.5 29-1.5s29 0.20115 29 1.5c0 1.206-1.5395 1.5-7.8554 1.5h-7.8554l-0.6375 6.75c-0.35062 3.7125-0.64069 10.813-0.6446 15.78-0.0135 17.097-4.5642 46.088-9.6275 61.332-1.3952 4.2008-5.4214 13.53-8.9471 20.731-16.975 34.673-42.058 61.329-70.474 74.897l-7.4584 3.5611 16-0.54328c19.556-0.66402 45.442-2.9225 63.5-5.54 7.425-1.0763 16.031-1.9593 19.125-1.9623 3.0938-3e-3 7.0312-0.28667 8.75-0.63042l3.125-0.625v-7.816c0-6.8382 1.0173-10.25 2.5879-8.6794 0.25016 0.25016 0.46847 11.208 0.48511 24.35 0.0412 32.554 0.15297 30.395-1.573 30.395-1.2157 0-1.5-1.6111-1.5-8.5v-8.5h-7.4863c-4.1174 0-13.809-0.90144-21.536-2.0032-21.571-3.0756-43.67-5.0242-63.478-5.5974l-18-0.52083 6.0669 2.8107c8.4631 3.9208 22.559 12.704 28.428 17.713 8.6731 7.4032 22.994 23.779 30.18 34.511 11.187 16.707 20.94 37.726 25.255 54.428 3.3266 12.877 6.5635 37.646 6.5678 50.257 2e-3 4.4545 0.29385 11.542 0.64956 15.75l0.64673 7.6509h7.9366c5.9048 0 7.8299 0.32 7.5199 1.25-0.59267 1.778-56.893 1.8204-57.486 0.0433-0.28594-0.85784 1.8526-1.2915 7.3972-1.5l7.7994-0.2933 1.8589-12c2.7154-17.529 2.9055-55.656 0.33656-67.5-2.0473-9.4393-8.4673-26.684-14.171-38.066-11.961-23.867-33.68-47.36-52.735-57.041l-5.75-2.9216v273.93l6.25 0.29771c4.7566 0.22658 6.25 0.65614 6.25 1.7977 0 1.2868-3.553 1.5347-25 1.7443-13.75 0.13439-25.62-0.15279-26.378-0.63819z"/>
 </g>
</svg>
