<svg width="24mm" height="24mm" viewBox="0 0 24 24" xml:space="preserve" xmlns="http://www.w3.org/2000/svg">
    <path d="M11.92 19.675c-.022-.022-.04-2.062-.04-4.535 0-4.107.01-4.498.097-4.532.053-.02.14-.01.191.023.086.054.097.488.11 4.492.011 3.224-.003 4.453-.05 4.511-.07.085-.242.107-.308.041zm-3.972-.267c-.053-.054-.07-1.226-.07-4.916V9.646l-.162.045c-.09.025-.427.045-.75.045-.56 0-.613-.011-1.05-.22-2.301-1.098-1.984-4.415.49-5.126.283-.082.989-.094 5.651-.102 4.002-.007 5.393.008 5.592.062.444.12.832.35 1.191.71a2.728 2.728 0 0 1-.76 4.398c-.448.214-.476.22-1.137.22h-.677v4.738c0 2.607-.009 4.797-.02 4.868-.026.155-.17.222-.281.13-.068-.056-.081-.877-.081-4.917v-4.85l-7.624.03-.015 4.854c-.015 4.827-.02 4.942-.194 4.947-.017 0-.064-.03-.103-.07zM7.641 9.32a2.07 2.07 0 0 0 .91-.538c.534-.575.4-1.722-.283-2.436-.334-.348-.625-.483-1.097-.51-.312-.017-.43.004-.644.115-.49.256-.726.72-.628 1.242.062.328.416.682.905.905.238.108.417.222.398.254-.061.098-.428.134-.646.062-.331-.11-.75-.48-.941-.829-.322-.592-.205-1.26.298-1.702.351-.308.638-.411 1.153-.412.596-.002 1.006.15 1.42.53l.314.286 6.369.005.31-.264c.417-.356.819-.5 1.393-.499.515.002.802.104 1.153.413.503.441.62 1.11.298 1.702-.19.35-.61.72-.941.829-.219.072-.585.036-.646-.063-.02-.03.16-.145.398-.253.489-.223.843-.577.905-.906.097-.52-.138-.985-.628-1.24-.214-.112-.332-.133-.644-.116-.46.026-.769.164-1.078.483-.654.674-.769 1.78-.243 2.346.782.843 2.26.815 3.134-.06 1.155-1.154.797-3.132-.695-3.837l-.324-.152-5.282-.017c-5.656-.017-5.704-.015-6.275.276-.634.324-1.13 1.023-1.25 1.76C4.49 8.348 6.07 9.786 7.642 9.32zm7.772-.083c-.049-.032-.067-.058-.04-.058.027 0-.034-.07-.135-.156a1.467 1.467 0 0 1-.3-.382l-.116-.228H9.19l-.108.238c-.059.131-.193.314-.299.407-.105.092-.176.183-.156.203.019.019 1.573.034 3.454.034 2.23 0 3.388-.021 3.33-.058zm-1.346-1.222.625-.025.04-.358c.023-.197.093-.492.155-.657.063-.164.114-.306.114-.314 0-.008-1.351-.014-3.003-.014-1.65 0-3.002.02-3.002.044 0 .024.05.176.112.338.062.162.13.446.154.631l.042.337.655.017c1.041.028 3.423.03 4.107.001zM9.819 19.268c-.037-.096-.053-1.725-.043-4.4.014-4.085.02-4.248.124-4.269.06-.011.131.002.157.03.058.06.15 8.417.094 8.636-.052.207-.254.208-.332.003zm4.208.078c-.015-.04-.021-2.005-.013-4.365.014-3.986.023-4.295.117-4.354.246-.156.247-.134.229 4.392-.01 2.371-.03 4.331-.045 4.356-.045.072-.257.05-.288-.029z"/>
</svg>
